/* XPM */
static char *ad8f68cb304b4e9a8a0a666d54cc7571IkLCtPitjHZR8IvC[] = {
/* columns rows colors chars-per-pixel */
"128 128 8 1 ",
"  c black",
". c #141B1B",
"X c #662505",
"o c #A02222",
"O c #FF3636",
"+ c #84C669",
"@ c #FCE2CA",
"# c white",
/* pixels */
"++++++++++++++++++++++++++++++++........................                        ++++++++++++++++++++++++++++++++++++++++++++++++",
"++++++++++++++++++++++++++++++++........................                        ++++++++++++++++++++++++++++++++++++++++++++++++",
"++++++++++++++++++++++++++++++++........................                        ++++++++++++++++++++++++++++++++++++++++++++++++",
"++++++++++++++++++++++++++++++++........................                        ++++++++++++++++++++++++++++++++++++++++++++++++",
"++++++++++++++++++++++++++++++++........................                        ++++++++++++++++++++++++++++++++++++++++++++++++",
"++++++++++++++++++++++++++++++++........................                        ++++++++++++++++++++++++++++++++++++++++++++++++",
"++++++++++++++++++++++++++++++++........................                        ++++++++++++++++++++++++++++++++++++++++++++++++",
"++++++++++++++++++++++++++++++++........................                        ++++++++++++++++++++++++++++++++++++++++++++++++",
"++++++++++++++++++++++++................OOOOOOOO................................OOOOOOOO++++++++++++++++++++++++OOOOOOOO++++++++",
"++++++++++++++++++++++++................OOOOOOOO................................OOOOOOOO++++++++++++++++++++++++OOOOOOOO++++++++",
"++++++++++++++++++++++++................OOOOOOOO................................OOOOOOOO++++++++++++++++++++++++OOOOOOOO++++++++",
"++++++++++++++++++++++++................OOOOOOOO................................OOOOOOOO++++++++++++++++++++++++OOOOOOOO++++++++",
"++++++++++++++++++++++++................OOOOOOOO................................OOOOOOOO++++++++++++++++++++++++OOOOOOOO++++++++",
"++++++++++++++++++++++++................OOOOOOOO................................OOOOOOOO++++++++++++++++++++++++OOOOOOOO++++++++",
"++++++++++++++++++++++++................OOOOOOOO................................OOOOOOOO++++++++++++++++++++++++OOOOOOOO++++++++",
"++++++++++++++++++++++++................OOOOOOOO................................OOOOOOOO++++++++++++++++++++++++OOOOOOOO++++++++",
"++++++++++++++++++++++++........OOOOOOOO@@@@@@@@OOOOOOOOOOOOOOOOOOOOOOOOOOOOOOOO@@@@@@@@OOOOOOOO@@@@@@@@OOOOOOOO@@@@@@@@++++++++",
"++++++++++++++++++++++++........OOOOOOOO@@@@@@@@OOOOOOOOOOOOOOOOOOOOOOOOOOOOOOOO@@@@@@@@OOOOOOOO@@@@@@@@OOOOOOOO@@@@@@@@++++++++",
"++++++++++++++++++++++++........OOOOOOOO@@@@@@@@OOOOOOOOOOOOOOOOOOOOOOOOOOOOOOOO@@@@@@@@OOOOOOOO@@@@@@@@OOOOOOOO@@@@@@@@++++++++",
"++++++++++++++++++++++++........OOOOOOOO@@@@@@@@OOOOOOOOOOOOOOOOOOOOOOOOOOOOOOOO@@@@@@@@OOOOOOOO@@@@@@@@OOOOOOOO@@@@@@@@++++++++",
"++++++++++++++++++++++++........OOOOOOOO@@@@@@@@OOOOOOOOOOOOOOOOOOOOOOOOOOOOOOOO@@@@@@@@OOOOOOOO@@@@@@@@OOOOOOOO@@@@@@@@++++++++",
"++++++++++++++++++++++++........OOOOOOOO@@@@@@@@OOOOOOOOOOOOOOOOOOOOOOOOOOOOOOOO@@@@@@@@OOOOOOOO@@@@@@@@OOOOOOOO@@@@@@@@++++++++",
"++++++++++++++++++++++++........OOOOOOOO@@@@@@@@OOOOOOOOOOOOOOOOOOOOOOOOOOOOOOOO@@@@@@@@OOOOOOOO@@@@@@@@OOOOOOOO@@@@@@@@++++++++",
"++++++++++++++++++++++++........OOOOOOOO@@@@@@@@OOOOOOOOOOOOOOOOOOOOOOOOOOOOOOOO@@@@@@@@OOOOOOOO@@@@@@@@OOOOOOOO@@@@@@@@++++++++",
"++++++++++++++++++++++++OOOOOOOOOOOOOOOOooooooooOOOOOOOOOOOOOOOOOOOOOOOOOOOOOOOOOOOOOOOOOOOOOOOOOOOOOOOO++++++++++++++++++++++++",
"++++++++++++++++++++++++OOOOOOOOOOOOOOOOooooooooOOOOOOOOOOOOOOOOOOOOOOOOOOOOOOOOOOOOOOOOOOOOOOOOOOOOOOOO++++++++++++++++++++++++",
"++++++++++++++++++++++++OOOOOOOOOOOOOOOOooooooooOOOOOOOOOOOOOOOOOOOOOOOOOOOOOOOOOOOOOOOOOOOOOOOOOOOOOOOO++++++++++++++++++++++++",
"++++++++++++++++++++++++OOOOOOOOOOOOOOOOooooooooOOOOOOOOOOOOOOOOOOOOOOOOOOOOOOOOOOOOOOOOOOOOOOOOOOOOOOOO++++++++++++++++++++++++",
"++++++++++++++++++++++++OOOOOOOOOOOOOOOOooooooooOOOOOOOOOOOOOOOOOOOOOOOOOOOOOOOOOOOOOOOOOOOOOOOOOOOOOOOO++++++++++++++++++++++++",
"++++++++++++++++++++++++OOOOOOOOOOOOOOOOooooooooOOOOOOOOOOOOOOOOOOOOOOOOOOOOOOOOOOOOOOOOOOOOOOOOOOOOOOOO++++++++++++++++++++++++",
"++++++++++++++++++++++++OOOOOOOOOOOOOOOOooooooooOOOOOOOOOOOOOOOOOOOOOOOOOOOOOOOOOOOOOOOOOOOOOOOOOOOOOOOO++++++++++++++++++++++++",
"++++++++++++++++++++++++OOOOOOOOOOOOOOOOooooooooOOOOOOOOOOOOOOOOOOOOOOOOOOOOOOOOOOOOOOOOOOOOOOOOOOOOOOOO++++++++++++++++++++++++",
"++++++++ooooooooOOOOOOOOOOOOOOOOoooooooo################OOOOOOOOOOOOOOOOOOOOOOOOOOOOOOOOOOOOOOOOOOOOOOOOOOOOOOOO++++++++++++++++",
"++++++++ooooooooOOOOOOOOOOOOOOOOoooooooo################OOOOOOOOOOOOOOOOOOOOOOOOOOOOOOOOOOOOOOOOOOOOOOOOOOOOOOOO++++++++++++++++",
"++++++++ooooooooOOOOOOOOOOOOOOOOoooooooo################OOOOOOOOOOOOOOOOOOOOOOOOOOOOOOOOOOOOOOOOOOOOOOOOOOOOOOOO++++++++++++++++",
"++++++++ooooooooOOOOOOOOOOOOOOOOoooooooo################OOOOOOOOOOOOOOOOOOOOOOOOOOOOOOOOOOOOOOOOOOOOOOOOOOOOOOOO++++++++++++++++",
"++++++++ooooooooOOOOOOOOOOOOOOOOoooooooo################OOOOOOOOOOOOOOOOOOOOOOOOOOOOOOOOOOOOOOOOOOOOOOOOOOOOOOOO++++++++++++++++",
"++++++++ooooooooOOOOOOOOOOOOOOOOoooooooo################OOOOOOOOOOOOOOOOOOOOOOOOOOOOOOOOOOOOOOOOOOOOOOOOOOOOOOOO++++++++++++++++",
"++++++++ooooooooOOOOOOOOOOOOOOOOoooooooo################OOOOOOOOOOOOOOOOOOOOOOOOOOOOOOOOOOOOOOOOOOOOOOOOOOOOOOOO++++++++++++++++",
"++++++++ooooooooOOOOOOOOOOOOOOOOoooooooo################OOOOOOOOOOOOOOOOOOOOOOOOOOOOOOOOOOOOOOOOOOOOOOOOOOOOOOOO++++++++++++++++",
"++++++++ooooooooOOOOOOOOOOOOOOOO########OOOOOOOOOOOOOOOOOOOOOOOOOOOOOOOOOOOOOOOOOOOOOOOOOOOOOOOOOOOOOOOOOOOOOOOOOOOOOOOO++++++++",
"++++++++ooooooooOOOOOOOOOOOOOOOO########OOOOOOOOOOOOOOOOOOOOOOOOOOOOOOOOOOOOOOOOOOOOOOOOOOOOOOOOOOOOOOOOOOOOOOOOOOOOOOOO++++++++",
"++++++++ooooooooOOOOOOOOOOOOOOOO########OOOOOOOOOOOOOOOOOOOOOOOOOOOOOOOOOOOOOOOOOOOOOOOOOOOOOOOOOOOOOOOOOOOOOOOOOOOOOOOO++++++++",
"++++++++ooooooooOOOOOOOOOOOOOOOO########OOOOOOOOOOOOOOOOOOOOOOOOOOOOOOOOOOOOOOOOOOOOOOOOOOOOOOOOOOOOOOOOOOOOOOOOOOOOOOOO++++++++",
"++++++++ooooooooOOOOOOOOOOOOOOOO########OOOOOOOOOOOOOOOOOOOOOOOOOOOOOOOOOOOOOOOOOOOOOOOOOOOOOOOOOOOOOOOOOOOOOOOOOOOOOOOO++++++++",
"++++++++ooooooooOOOOOOOOOOOOOOOO########OOOOOOOOOOOOOOOOOOOOOOOOOOOOOOOOOOOOOOOOOOOOOOOOOOOOOOOOOOOOOOOOOOOOOOOOOOOOOOOO++++++++",
"++++++++ooooooooOOOOOOOOOOOOOOOO########OOOOOOOOOOOOOOOOOOOOOOOOOOOOOOOOOOOOOOOOOOOOOOOOOOOOOOOOOOOOOOOOOOOOOOOOOOOOOOOO++++++++",
"++++++++ooooooooOOOOOOOOOOOOOOOO########OOOOOOOOOOOOOOOOOOOOOOOOOOOOOOOOOOOOOOOOOOOOOOOOOOOOOOOOOOOOOOOOOOOOOOOOOOOOOOOO++++++++",
"++++++++ooooooooOOOOOOOOOOOOOOOOOOOOOOOO        OOOOOOOOOOOOOOOOOOOOOOOOOOOOOOOOOOOOOOOOOOOOOOOOOOOOOOOOOOOOOOOOOOOOOOOO++++++++",
"++++++++ooooooooOOOOOOOOOOOOOOOOOOOOOOOO        OOOOOOOOOOOOOOOOOOOOOOOOOOOOOOOOOOOOOOOOOOOOOOOOOOOOOOOOOOOOOOOOOOOOOOOO++++++++",
"++++++++ooooooooOOOOOOOOOOOOOOOOOOOOOOOO        OOOOOOOOOOOOOOOOOOOOOOOOOOOOOOOOOOOOOOOOOOOOOOOOOOOOOOOOOOOOOOOOOOOOOOOO++++++++",
"++++++++ooooooooOOOOOOOOOOOOOOOOOOOOOOOO        OOOOOOOOOOOOOOOOOOOOOOOOOOOOOOOOOOOOOOOOOOOOOOOOOOOOOOOOOOOOOOOOOOOOOOOO++++++++",
"++++++++ooooooooOOOOOOOOOOOOOOOOOOOOOOOO        OOOOOOOOOOOOOOOOOOOOOOOOOOOOOOOOOOOOOOOOOOOOOOOOOOOOOOOOOOOOOOOOOOOOOOOO++++++++",
"++++++++ooooooooOOOOOOOOOOOOOOOOOOOOOOOO        OOOOOOOOOOOOOOOOOOOOOOOOOOOOOOOOOOOOOOOOOOOOOOOOOOOOOOOOOOOOOOOOOOOOOOOO++++++++",
"++++++++ooooooooOOOOOOOOOOOOOOOOOOOOOOOO        OOOOOOOOOOOOOOOOOOOOOOOOOOOOOOOOOOOOOOOOOOOOOOOOOOOOOOOOOOOOOOOOOOOOOOOO++++++++",
"++++++++ooooooooOOOOOOOOOOOOOOOOOOOOOOOO        OOOOOOOOOOOOOOOOOOOOOOOOOOOOOOOOOOOOOOOOOOOOOOOOOOOOOOOOOOOOOOOOOOOOOOOO++++++++",
"++++++++ooooooooooooooooooooooooooooooooOOOOOOOOOOOOOOOOOOOOOOOOOOOOOOOOOOOOOOOOXXXXXXXXXXXXXXXXXXXXXXXXXXXXXXXXOOOOOOOO++++++++",
"++++++++ooooooooooooooooooooooooooooooooOOOOOOOOOOOOOOOOOOOOOOOOOOOOOOOOOOOOOOOOXXXXXXXXXXXXXXXXXXXXXXXXXXXXXXXXOOOOOOOO++++++++",
"++++++++ooooooooooooooooooooooooooooooooOOOOOOOOOOOOOOOOOOOOOOOOOOOOOOOOOOOOOOOOXXXXXXXXXXXXXXXXXXXXXXXXXXXXXXXXOOOOOOOO++++++++",
"++++++++ooooooooooooooooooooooooooooooooOOOOOOOOOOOOOOOOOOOOOOOOOOOOOOOOOOOOOOOOXXXXXXXXXXXXXXXXXXXXXXXXXXXXXXXXOOOOOOOO++++++++",
"++++++++ooooooooooooooooooooooooooooooooOOOOOOOOOOOOOOOOOOOOOOOOOOOOOOOOOOOOOOOOXXXXXXXXXXXXXXXXXXXXXXXXXXXXXXXXOOOOOOOO++++++++",
"++++++++ooooooooooooooooooooooooooooooooOOOOOOOOOOOOOOOOOOOOOOOOOOOOOOOOOOOOOOOOXXXXXXXXXXXXXXXXXXXXXXXXXXXXXXXXOOOOOOOO++++++++",
"++++++++ooooooooooooooooooooooooooooooooOOOOOOOOOOOOOOOOOOOOOOOOOOOOOOOOOOOOOOOOXXXXXXXXXXXXXXXXXXXXXXXXXXXXXXXXOOOOOOOO++++++++",
"++++++++ooooooooooooooooooooooooooooooooOOOOOOOOOOOOOOOOOOOOOOOOOOOOOOOOOOOOOOOOXXXXXXXXXXXXXXXXXXXXXXXXXXXXXXXXOOOOOOOO++++++++",
"++++++++ooooooooOOOOOOOO@@@@@@@@OOOOOOOOOOOOOOOOOOOOOOOOOOOOOOOOOOOOOOOOXXXXXXXXOOOOOOOOOOOOOOOOXXXXXXXXXXXXXXXX++++++++++++++++",
"++++++++ooooooooOOOOOOOO@@@@@@@@OOOOOOOOOOOOOOOOOOOOOOOOOOOOOOOOOOOOOOOOXXXXXXXXOOOOOOOOOOOOOOOOXXXXXXXXXXXXXXXX++++++++++++++++",
"++++++++ooooooooOOOOOOOO@@@@@@@@OOOOOOOOOOOOOOOOOOOOOOOOOOOOOOOOOOOOOOOOXXXXXXXXOOOOOOOOOOOOOOOOXXXXXXXXXXXXXXXX++++++++++++++++",
"++++++++ooooooooOOOOOOOO@@@@@@@@OOOOOOOOOOOOOOOOOOOOOOOOOOOOOOOOOOOOOOOOXXXXXXXXOOOOOOOOOOOOOOOOXXXXXXXXXXXXXXXX++++++++++++++++",
"++++++++ooooooooOOOOOOOO@@@@@@@@OOOOOOOOOOOOOOOOOOOOOOOOOOOOOOOOOOOOOOOOXXXXXXXXOOOOOOOOOOOOOOOOXXXXXXXXXXXXXXXX++++++++++++++++",
"++++++++ooooooooOOOOOOOO@@@@@@@@OOOOOOOOOOOOOOOOOOOOOOOOOOOOOOOOOOOOOOOOXXXXXXXXOOOOOOOOOOOOOOOOXXXXXXXXXXXXXXXX++++++++++++++++",
"++++++++ooooooooOOOOOOOO@@@@@@@@OOOOOOOOOOOOOOOOOOOOOOOOOOOOOOOOOOOOOOOOXXXXXXXXOOOOOOOOOOOOOOOOXXXXXXXXXXXXXXXX++++++++++++++++",
"++++++++ooooooooOOOOOOOO@@@@@@@@OOOOOOOOOOOOOOOOOOOOOOOOOOOOOOOOOOOOOOOOXXXXXXXXOOOOOOOOOOOOOOOOXXXXXXXXXXXXXXXX++++++++++++++++",
"++++++++ooooooooOOOOOOOOOOOOOOOOOOOOOOOOOOOOOOOOOOOOOOOOOOOOOOOOOOOOOOOOXXXXXXXXOOOOOOOOOOOOOOOOXXXXXXXXXXXXXXXX++++++++++++++++",
"++++++++ooooooooOOOOOOOOOOOOOOOOOOOOOOOOOOOOOOOOOOOOOOOOOOOOOOOOOOOOOOOOXXXXXXXXOOOOOOOOOOOOOOOOXXXXXXXXXXXXXXXX++++++++++++++++",
"++++++++ooooooooOOOOOOOOOOOOOOOOOOOOOOOOOOOOOOOOOOOOOOOOOOOOOOOOOOOOOOOOXXXXXXXXOOOOOOOOOOOOOOOOXXXXXXXXXXXXXXXX++++++++++++++++",
"++++++++ooooooooOOOOOOOOOOOOOOOOOOOOOOOOOOOOOOOOOOOOOOOOOOOOOOOOOOOOOOOOXXXXXXXXOOOOOOOOOOOOOOOOXXXXXXXXXXXXXXXX++++++++++++++++",
"++++++++ooooooooOOOOOOOOOOOOOOOOOOOOOOOOOOOOOOOOOOOOOOOOOOOOOOOOOOOOOOOOXXXXXXXXOOOOOOOOOOOOOOOOXXXXXXXXXXXXXXXX++++++++++++++++",
"++++++++ooooooooOOOOOOOOOOOOOOOOOOOOOOOOOOOOOOOOOOOOOOOOOOOOOOOOOOOOOOOOXXXXXXXXOOOOOOOOOOOOOOOOXXXXXXXXXXXXXXXX++++++++++++++++",
"++++++++ooooooooOOOOOOOOOOOOOOOOOOOOOOOOOOOOOOOOOOOOOOOOOOOOOOOOOOOOOOOOXXXXXXXXOOOOOOOOOOOOOOOOXXXXXXXXXXXXXXXX++++++++++++++++",
"++++++++ooooooooOOOOOOOOOOOOOOOOOOOOOOOOOOOOOOOOOOOOOOOOOOOOOOOOOOOOOOOOXXXXXXXXOOOOOOOOOOOOOOOOXXXXXXXXXXXXXXXX++++++++++++++++",
"++++++++ooooooooOOOOOOOOOOOOOOOOOOOOOOOOOOOOOOOOOOOOOOOOOOOOOOOOXXXXXXXXXXXXXXXXXXXXXXXXOOOOOOOOXXXXXXXXXXXXXXXX++++++++++++++++",
"++++++++ooooooooOOOOOOOOOOOOOOOOOOOOOOOOOOOOOOOOOOOOOOOOOOOOOOOOXXXXXXXXXXXXXXXXXXXXXXXXOOOOOOOOXXXXXXXXXXXXXXXX++++++++++++++++",
"++++++++ooooooooOOOOOOOOOOOOOOOOOOOOOOOOOOOOOOOOOOOOOOOOOOOOOOOOXXXXXXXXXXXXXXXXXXXXXXXXOOOOOOOOXXXXXXXXXXXXXXXX++++++++++++++++",
"++++++++ooooooooOOOOOOOOOOOOOOOOOOOOOOOOOOOOOOOOOOOOOOOOOOOOOOOOXXXXXXXXXXXXXXXXXXXXXXXXOOOOOOOOXXXXXXXXXXXXXXXX++++++++++++++++",
"++++++++ooooooooOOOOOOOOOOOOOOOOOOOOOOOOOOOOOOOOOOOOOOOOOOOOOOOOXXXXXXXXXXXXXXXXXXXXXXXXOOOOOOOOXXXXXXXXXXXXXXXX++++++++++++++++",
"++++++++ooooooooOOOOOOOOOOOOOOOOOOOOOOOOOOOOOOOOOOOOOOOOOOOOOOOOXXXXXXXXXXXXXXXXXXXXXXXXOOOOOOOOXXXXXXXXXXXXXXXX++++++++++++++++",
"++++++++ooooooooOOOOOOOOOOOOOOOOOOOOOOOOOOOOOOOOOOOOOOOOOOOOOOOOXXXXXXXXXXXXXXXXXXXXXXXXOOOOOOOOXXXXXXXXXXXXXXXX++++++++++++++++",
"++++++++ooooooooOOOOOOOOOOOOOOOOOOOOOOOOOOOOOOOOOOOOOOOOOOOOOOOOXXXXXXXXXXXXXXXXXXXXXXXXOOOOOOOOXXXXXXXXXXXXXXXX++++++++++++++++",
"++++++++ooooooooOOOOOOOOOOOOOOOOOOOOOOOOOOOOOOOOOOOOOOOOXXXXXXXXXXXXXXXXXOOOOOOOOOOOOOOOOOOOOOOOXXXXXXXXXXXXXXXX++++++++++++++++",
"++++++++ooooooooOOOOOOOOOOOOOOOOOOOOOOOOOOOOOOOOOOOOOOOOXXXXXXXXXXXXXXXXXOOOOOOOOOOOOOOOOOOOOOOOXXXXXXXXXXXXXXXX++++++++++++++++",
"++++++++ooooooooOOOOOOOOOOOOOOOOOOOOOOOOOOOOOOOOOOOOOOOOXXXXXXXXXXXXXXXXXOOOOOOOOOOOOOOOOOOOOOOOXXXXXXXXXXXXXXXX++++++++++++++++",
"++++++++ooooooooOOOOOOOOOOOOOOOOOOOOOOOOOOOOOOOOOOOOOOOOXXXXXXXXXXXXXXXXXOOOOOOOOOOOOOOOOOOOOOOOXXXXXXXXXXXXXXXX++++++++++++++++",
"++++++++ooooooooOOOOOOOOOOOOOOOOOOOOOOOOOOOOOOOOOOOOOOOOXXXXXXXXXXXXXXXXXOOOOOOOOOOOOOOOOOOOOOOOXXXXXXXXXXXXXXXX++++++++++++++++",
"++++++++ooooooooOOOOOOOOOOOOOOOOOOOOOOOOOOOOOOOOOOOOOOOOXXXXXXXXXXXXXXXXXOOOOOOOOOOOOOOOOOOOOOOOXXXXXXXXXXXXXXXX++++++++++++++++",
"++++++++ooooooooOOOOOOOOOOOOOOOOOOOOOOOOOOOOOOOOOOOOOOOOXXXXXXXXXXXXXXXXXOOOOOOOOOOOOOOOOOOOOOOOXXXXXXXXXXXXXXXX++++++++++++++++",
"++++++++ooooooooOOOOOOOOOOOOOOOOOOOOOOOOOOOOOOOOOOOOOOOOOOXXXXXXXXXXXXXXXOOOOOOOOOOOOOOOOOOOOOOOXXXXXXXXXXXXXXXX++++++++++++++++",
"++++++++++++++++OOOOOOOOOOOOOOOOOOOOOOOOOOOOOOOOOOOOOOOOOOXXXXXXXXXXXXXXXOOOOOOOOOOOOOOOOOOOOOOO........++++++++++++++++++++++++",
"++++++++++++++++OOOOOOOOOOOOOOOOOOOOOOOOOOOOOOOOOOOOOOOOOOXXXXXXXXXXXXXXXOOOOOOOOOOOOOOOOOOOOOOO........++++++++++++++++++++++++",
"++++++++++++++++OOOOOOOOOOOOOOOOOOOOOOOOOOOOOOOOOOOOOOOOOOXXXXXXXXXXXXXXXOOOOOOOOOOOOOOOOOOOOOOO........++++++++++++++++++++++++",
"++++++++++++++++OOOOOOOOOOOOOOOOOOOOOOOOOOOOOOOOOOOOOOOOOOXXXXXXXXXXXXXXXOOOOOOOOOOOOOOOOOOOOOOO........++++++++++++++++++++++++",
"++++++++++++++++OOOOOOOOOOOOOOOOOOOOOOOOOOOOOOOOOOOOOOOOOOXXXXXXXXXXXXXXXOOOOOOOOOOOOOOOOOOOOOOO........++++++++++++++++++++++++",
"++++++++++++++++OOOOOOOOOOOOOOOOOOOOOOOOOOOOOOOOOOOOOOOOOOXXXXXXXXXXXXXXXOOOOOOOOOOOOOOOOOOOOOOO........++++++++++++++++++++++++",
"++++++++++++++++OOOOOOOOOOOOOOOOOOOOOOOOOOOOOOOOOOOOOOOOOOXXXXXXXXXXXXXXXOOOOOOOOOOOOOOOOOOOOOOO........++++++++++++++++++++++++",
"++++++++++++++++OOOOOOOOOOOOOOOOOOOOOOOOOOOOOOOOOOOOOOOOOOXXXXXXXXXXXXXXXOOOOOOOOOOOOOOOOOOOOOOO........++++++++++++++++++++++++",
"++++++++++++++++OOOOOOOOOOOOOOOOOOOOOOOOOOOOOOOOOOOOOOOOOOXXXXXX........OOOOOOOOOOOOOOOO................++++++++++++++++++++++++",
"++++++++++++++++OOOOOOOOOOOOOOOOOOOOOOOOOOOOOOOOOOOOOOOOOOXXXXXX........OOOOOOOOOOOOOOOO................++++++++++++++++++++++++",
"++++++++++++++++OOOOOOOOOOOOOOOOOOOOOOOOOOOOOOOOOOOOOOOOOOXXXXXX........OOOOOOOOOOOOOOOO................++++++++++++++++++++++++",
"++++++++++++++++OOOOOOOOOOOOOOOOOOOOOOOOOOOOOOOOOOOOOOOOOOXXXXXX........OOOOOOOOOOOOOOOO................++++++++++++++++++++++++",
"++++++++++++++++OOOOOOOOOOOOOOOOOOOOOOOOOOOOOOOOOOOOOOOOOOXXXXXX........OOOOOOOOOOOOOOOO................++++++++++++++++++++++++",
"++++++++++++++++OOOOOOOOOOOOOOOOOOOOOOOOOOOOOOOOOOOOOOOOOOXXXXXX........OOOOOOOOOOOOOOOO................++++++++++++++++++++++++",
"++++++++++++++++OOOOOOOOOOOOOOOOOOOOOOOOOOOOOOOOOOOOOOOOOOXXXXXX........OOOOOOOOOOOOOOOO................++++++++++++++++++++++++",
"++++++++++++++++OOOOOOOOOOOOOOOOOOOOOOOOOOOOOOOOOOOOOOOO++++++++........OOOOOOOOOOOOOOOO................++++++++++++++++++++++++",
"++++++++++++++++++++++++++++++++++++++++++++++++++++++++++++++++........................................++++++++++++++++++++++++",
"++++++++++++++++++++++++++++++++++++++++++++++++++++++++++++++++........................................++++++++++++++++++++++++",
"++++++++++++++++++++++++++++++++++++++++++++++++++++++++++++++++........................................++++++++++++++++++++++++",
"++++++++++++++++++++++++++++++++++++++++++++++++++++++++++++++++........................................++++++++++++++++++++++++",
"++++++++++++++++++++++++++++++++++++++++++++++++++++++++++++++++........................................++++++++++++++++++++++++",
"++++++++++++++++++++++++++++++++++++++++++++++++++++++++++++++++........................................++++++++++++++++++++++++",
"++++++++++++++++++++++++++++++++++++++++++++++++++++++++++++++++........................................++++++++++++++++++++++++",
"++++++++++++++++++++++++++++++++++++++++++++++++++++++++++++++++........................................++++++++++++++++++++++++",
"++++++++++++++++++++++++++++++++++++++++                                        ........                ++++++++++++++++++++++++",
"++++++++++++++++++++++++++++++++++++++++                                        ........                ++++++++++++++++++++++++",
"++++++++++++++++++++++++++++++++++++++++                                        ........                ++++++++++++++++++++++++",
"++++++++++++++++++++++++++++++++++++++++                                        ........                ++++++++++++++++++++++++",
"++++++++++++++++++++++++++++++++++++++++                                        ........                ++++++++++++++++++++++++",
"++++++++++++++++++++++++++++++++++++++++                                        ........                ++++++++++++++++++++++++",
"++++++++++++++++++++++++++++++++++++++++                                        ........                ++++++++++++++++++++++++",
"++++++++++++++++++++++++++++++++++++++++                                        ........                ++++++++++++++++++++++++"
};
