/* XPM */
static char *d65a9fc1b22b4fedcf890bdf243758e5rxQXXtAvIHIQALEy[] = {
/* columns rows colors chars-per-pixel */
"128 128 6 1 ",
"  c black",
". c #662505",
"X c #FF3636",
"o c #84C669",
"O c #FCE2CA",
"+ c white",
/* pixels */
"oooooooooooooooooooooooooooooooooooooooooooooooo                                oooooooooooooooooooooooooooooooooooooooooooooooo",
"oooooooooooooooooooooooooooooooooooooooooooooooo                                oooooooooooooooooooooooooooooooooooooooooooooooo",
"oooooooooooooooooooooooooooooooooooooooooooooooo                                oooooooooooooooooooooooooooooooooooooooooooooooo",
"oooooooooooooooooooooooooooooooooooooooooooooooo                                oooooooooooooooooooooooooooooooooooooooooooooooo",
"oooooooooooooooooooooooooooooooooooooooooooooooo                                oooooooooooooooooooooooooooooooooooooooooooooooo",
"oooooooooooooooooooooooooooooooooooooooooooooooo                                oooooooooooooooooooooooooooooooooooooooooooooooo",
"oooooooooooooooooooooooooooooooooooooooooooooooo                                oooooooooooooooooooooooooooooooooooooooooooooooo",
"oooooooooooooooooooooooooooooooooooooooooooooooo                                oooooooooooooooooooooooooooooooooooooooooooooooo",
"ooooooooXXXXXXXXooooooooooooooooooooooooXXXXXXXX                                XXXXXXXXooooooooooooooooooooooooXXXXXXXXoooooooo",
"ooooooooXXXXXXXXooooooooooooooooooooooooXXXXXXXX                                XXXXXXXXooooooooooooooooooooooooXXXXXXXXoooooooo",
"ooooooooXXXXXXXXooooooooooooooooooooooooXXXXXXXX                                XXXXXXXXooooooooooooooooooooooooXXXXXXXXoooooooo",
"ooooooooXXXXXXXXooooooooooooooooooooooooXXXXXXXX                                XXXXXXXXooooooooooooooooooooooooXXXXXXXXoooooooo",
"ooooooooXXXXXXXXooooooooooooooooooooooooXXXXXXXX                                XXXXXXXXooooooooooooooooooooooooXXXXXXXXoooooooo",
"ooooooooXXXXXXXXooooooooooooooooooooooooXXXXXXXX                                XXXXXXXXooooooooooooooooooooooooXXXXXXXXoooooooo",
"ooooooooXXXXXXXXooooooooooooooooooooooooXXXXXXXX                                XXXXXXXXooooooooooooooooooooooooXXXXXXXXoooooooo",
"ooooooooXXXXXXXXooooooooooooooooooooooooXXXXXXXX                                XXXXXXXXooooooooooooooooooooooooXXXXXXXXoooooooo",
"ooooooooOOOOOOOOXXXXXXXXOOOOOOOOXXXXXXXXOOOOOOOOXXXXXXXXXXXXXXXXXXXXXXXXXXXXXXXXOOOOOOOOXXXXXXXXOOOOOOOOXXXXXXXXOOOOOOOOoooooooo",
"ooooooooOOOOOOOOXXXXXXXXOOOOOOOOXXXXXXXXOOOOOOOOXXXXXXXXXXXXXXXXXXXXXXXXXXXXXXXXOOOOOOOOXXXXXXXXOOOOOOOOXXXXXXXXOOOOOOOOoooooooo",
"ooooooooOOOOOOOOXXXXXXXXOOOOOOOOXXXXXXXXOOOOOOOOXXXXXXXXXXXXXXXXXXXXXXXXXXXXXXXXOOOOOOOOXXXXXXXXOOOOOOOOXXXXXXXXOOOOOOOOoooooooo",
"ooooooooOOOOOOOOXXXXXXXXOOOOOOOOXXXXXXXXOOOOOOOOXXXXXXXXXXXXXXXXXXXXXXXXXXXXXXXXOOOOOOOOXXXXXXXXOOOOOOOOXXXXXXXXOOOOOOOOoooooooo",
"ooooooooOOOOOOOOXXXXXXXXOOOOOOOOXXXXXXXXOOOOOOOOXXXXXXXXXXXXXXXXXXXXXXXXXXXXXXXXOOOOOOOOXXXXXXXXOOOOOOOOXXXXXXXXOOOOOOOOoooooooo",
"ooooooooOOOOOOOOXXXXXXXXOOOOOOOOXXXXXXXXOOOOOOOOXXXXXXXXXXXXXXXXXXXXXXXXXXXXXXXXOOOOOOOOXXXXXXXXOOOOOOOOXXXXXXXXOOOOOOOOoooooooo",
"ooooooooOOOOOOOOXXXXXXXXOOOOOOOOXXXXXXXXOOOOOOOOXXXXXXXXXXXXXXXXXXXXXXXXXXXXXXXXOOOOOOOOXXXXXXXXOOOOOOOOXXXXXXXXOOOOOOOOoooooooo",
"ooooooooOOOOOOOOXXXXXXXXOOOOOOOOXXXXXXXXOOOOOOOOXXXXXXXXXXXXXXXXXXXXXXXXXXXXXXXXOOOOOOOOXXXXXXXXOOOOOOOOXXXXXXXXOOOOOOOOoooooooo",
"ooooooooooooooooooooooooXXXXXXXXXXXXXXXXXXXXXXXXXXXXXXXXXXXXXXXXXXXXXXXXXXXXXXXXXXXXXXXXXXXXXXXXXXXXXXXXoooooooooooooooooooooooo",
"ooooooooooooooooooooooooXXXXXXXXXXXXXXXXXXXXXXXXXXXXXXXXXXXXXXXXXXXXXXXXXXXXXXXXXXXXXXXXXXXXXXXXXXXXXXXXoooooooooooooooooooooooo",
"ooooooooooooooooooooooooXXXXXXXXXXXXXXXXXXXXXXXXXXXXXXXXXXXXXXXXXXXXXXXXXXXXXXXXXXXXXXXXXXXXXXXXXXXXXXXXoooooooooooooooooooooooo",
"ooooooooooooooooooooooooXXXXXXXXXXXXXXXXXXXXXXXXXXXXXXXXXXXXXXXXXXXXXXXXXXXXXXXXXXXXXXXXXXXXXXXXXXXXXXXXoooooooooooooooooooooooo",
"ooooooooooooooooooooooooXXXXXXXXXXXXXXXXXXXXXXXXXXXXXXXXXXXXXXXXXXXXXXXXXXXXXXXXXXXXXXXXXXXXXXXXXXXXXXXXoooooooooooooooooooooooo",
"ooooooooooooooooooooooooXXXXXXXXXXXXXXXXXXXXXXXXXXXXXXXXXXXXXXXXXXXXXXXXXXXXXXXXXXXXXXXXXXXXXXXXXXXXXXXXoooooooooooooooooooooooo",
"ooooooooooooooooooooooooXXXXXXXXXXXXXXXXXXXXXXXXXXXXXXXXXXXXXXXXXXXXXXXXXXXXXXXXXXXXXXXXXXXXXXXXXXXXXXXXoooooooooooooooooooooooo",
"ooooooooooooooooooooooooXXXXXXXXXXXXXXXXXXXXXXXXXXXXXXXXXXXXXXXXXXXXXXXXXXXXXXXXXXXXXXXXXXXXXXXXXXXXXXXXoooooooooooooooooooooooo",
"ooooooooooooooooXXXXXXXXXXXXXXXX++++++++++++++++........XXXXXXXXXXXXXXXX........++++++++++++++++XXXXXXXXXXXXXXXXoooooooooooooooo",
"ooooooooooooooooXXXXXXXXXXXXXXXX++++++++++++++++........XXXXXXXXXXXXXXXX........++++++++++++++++XXXXXXXXXXXXXXXXoooooooooooooooo",
"ooooooooooooooooXXXXXXXXXXXXXXXX++++++++++++++++........XXXXXXXXXXXXXXXX........++++++++++++++++XXXXXXXXXXXXXXXXoooooooooooooooo",
"ooooooooooooooooXXXXXXXXXXXXXXXX++++++++++++++++........XXXXXXXXXXXXXXXX........++++++++++++++++XXXXXXXXXXXXXXXXoooooooooooooooo",
"ooooooooooooooooXXXXXXXXXXXXXXXX++++++++++++++++........XXXXXXXXXXXXXXXX........++++++++++++++++XXXXXXXXXXXXXXXXoooooooooooooooo",
"ooooooooooooooooXXXXXXXXXXXXXXXX++++++++++++++++........XXXXXXXXXXXXXXXX........++++++++++++++++XXXXXXXXXXXXXXXXoooooooooooooooo",
"ooooooooooooooooXXXXXXXXXXXXXXXX++++++++++++++++........XXXXXXXXXXXXXXXX........++++++++++++++++XXXXXXXXXXXXXXXXoooooooooooooooo",
"ooooooooooooooooXXXXXXXXXXXXXXXX++++++++++++++++........XXXXXXXXXXXXXXXX........++++++++++++++++XXXXXXXXXXXXXXXXoooooooooooooooo",
"ooooooooooooooooXXXXXXXXXXXXXXXXXXXXXXXXXXXXXXXX++++++++................++++++++XXXXXXXXXXXXXXXXXXXXXXXXXXXXXXXXoooooooooooooooo",
"ooooooooooooooooXXXXXXXXXXXXXXXXXXXXXXXXXXXXXXXX++++++++................++++++++XXXXXXXXXXXXXXXXXXXXXXXXXXXXXXXXoooooooooooooooo",
"ooooooooooooooooXXXXXXXXXXXXXXXXXXXXXXXXXXXXXXXX++++++++................++++++++XXXXXXXXXXXXXXXXXXXXXXXXXXXXXXXXoooooooooooooooo",
"ooooooooooooooooXXXXXXXXXXXXXXXXXXXXXXXXXXXXXXXX++++++++................++++++++XXXXXXXXXXXXXXXXXXXXXXXXXXXXXXXXoooooooooooooooo",
"ooooooooooooooooXXXXXXXXXXXXXXXXXXXXXXXXXXXXXXXX++++++++................++++++++XXXXXXXXXXXXXXXXXXXXXXXXXXXXXXXXoooooooooooooooo",
"ooooooooooooooooXXXXXXXXXXXXXXXXXXXXXXXXXXXXXXXX++++++++................++++++++XXXXXXXXXXXXXXXXXXXXXXXXXXXXXXXXoooooooooooooooo",
"ooooooooooooooooXXXXXXXXXXXXXXXXXXXXXXXXXXXXXXXX++++++++................++++++++XXXXXXXXXXXXXXXXXXXXXXXXXXXXXXXXoooooooooooooooo",
"ooooooooooooooooXXXXXXXXXXXXXXXXXXXXXXXXXXXXXXXX++++++++................++++++++XXXXXXXXXXXXXXXXXXXXXXXXXXXXXXXXoooooooooooooooo",
"ooooooooooooooooooooooooXXXXXXXXXXXXXXXXXXXXXXXXXXXXXXXXXXXXXXXXXXXXXXXXXXXXXXXXXXXXXXXXXXXXXXXXXXXXXXXXXXXXXXXXoooooooooooooooo",
"ooooooooooooooooooooooooXXXXXXXXXXXXXXXXXXXXXXXXXXXXXXXXXXXXXXXXXXXXXXXXXXXXXXXXXXXXXXXXXXXXXXXXXXXXXXXXXXXXXXXXoooooooooooooooo",
"ooooooooooooooooooooooooXXXXXXXXXXXXXXXXXXXXXXXXXXXXXXXXXXXXXXXXXXXXXXXXXXXXXXXXXXXXXXXXXXXXXXXXXXXXXXXXXXXXXXXXoooooooooooooooo",
"ooooooooooooooooooooooooXXXXXXXXXXXXXXXXXXXXXXXXXXXXXXXXXXXXXXXXXXXXXXXXXXXXXXXXXXXXXXXXXXXXXXXXXXXXXXXXXXXXXXXXoooooooooooooooo",
"ooooooooooooooooooooooooXXXXXXXXXXXXXXXXXXXXXXXXXXXXXXXXXXXXXXXXXXXXXXXXXXXXXXXXXXXXXXXXXXXXXXXXXXXXXXXXXXXXXXXXoooooooooooooooo",
"ooooooooooooooooooooooooXXXXXXXXXXXXXXXXXXXXXXXXXXXXXXXXXXXXXXXXXXXXXXXXXXXXXXXXXXXXXXXXXXXXXXXXXXXXXXXXXXXXXXXXoooooooooooooooo",
"ooooooooooooooooooooooooXXXXXXXXXXXXXXXXXXXXXXXXXXXXXXXXXXXXXXXXXXXXXXXXXXXXXXXXXXXXXXXXXXXXXXXXXXXXXXXXXXXXXXXXoooooooooooooooo",
"ooooooooooooooooooooooooXXXXXXXXXXXXXXXXXXXXXXXXXXXXXXXXXXXXXXXXXXXXXXXXXXXXXXXXXXXXXXXXXXXXXXXXXXXXXXXXXXXXXXXXoooooooooooooooo",
"ooooooooXXXXXXXXXXXXXXXX........XXXXXXXX        XXXXXXXXXXXXXXXXXXXXXXXXXXXXXXXX        XXXXXXXXXXXXXXXXoooooooooooooooooooooooo",
"ooooooooXXXXXXXXXXXXXXXX........XXXXXXXX        XXXXXXXXXXXXXXXXXXXXXXXXXXXXXXXX        XXXXXXXXXXXXXXXXoooooooooooooooooooooooo",
"ooooooooXXXXXXXXXXXXXXXX........XXXXXXXX        XXXXXXXXXXXXXXXXXXXXXXXXXXXXXXXX        XXXXXXXXXXXXXXXXoooooooooooooooooooooooo",
"ooooooooXXXXXXXXXXXXXXXX........XXXXXXXX        XXXXXXXXXXXXXXXXXXXXXXXXXXXXXXXX        XXXXXXXXXXXXXXXXoooooooooooooooooooooooo",
"ooooooooXXXXXXXXXXXXXXXX........XXXXXXXX        XXXXXXXXXXXXXXXXXXXXXXXXXXXXXXXX        XXXXXXXXXXXXXXXXoooooooooooooooooooooooo",
"ooooooooXXXXXXXXXXXXXXXX........XXXXXXXX        XXXXXXXXXXXXXXXXXXXXXXXXXXXXXXXX        XXXXXXXXXXXXXXXXoooooooooooooooooooooooo",
"ooooooooXXXXXXXXXXXXXXXX........XXXXXXXX        XXXXXXXXXXXXXXXXXXXXXXXXXXXXXXXX        XXXXXXXXXXXXXXXXoooooooooooooooooooooooo",
"ooooooooXXXXXXXXXXXXXXXX........XXXXXXXX        XXXXXXXXXXXXXXXXXXXXXXXXXXXXXXXX        XXXXXXXXXXXXXXXXoooooooooooooooooooooooo",
"ooooooooXXXXXXXXXXXXXXXX........XXXXXXXXXXXXXXXX                                XXXXXXXXXXXXXXXX........XXXXXXXXXXXXXXXXoooooooo",
"ooooooooXXXXXXXXXXXXXXXX........XXXXXXXXXXXXXXXX                                XXXXXXXXXXXXXXXX........XXXXXXXXXXXXXXXXoooooooo",
"ooooooooXXXXXXXXXXXXXXXX........XXXXXXXXXXXXXXXX                                XXXXXXXXXXXXXXXX........XXXXXXXXXXXXXXXXoooooooo",
"ooooooooXXXXXXXXXXXXXXXX........XXXXXXXXXXXXXXXX                                XXXXXXXXXXXXXXXX........XXXXXXXXXXXXXXXXoooooooo",
"ooooooooXXXXXXXXXXXXXXXX........XXXXXXXXXXXXXXXX                                XXXXXXXXXXXXXXXX........XXXXXXXXXXXXXXXXoooooooo",
"ooooooooXXXXXXXXXXXXXXXX........XXXXXXXXXXXXXXXX                                XXXXXXXXXXXXXXXX........XXXXXXXXXXXXXXXXoooooooo",
"ooooooooXXXXXXXXXXXXXXXX........XXXXXXXXXXXXXXXX                                XXXXXXXXXXXXXXXX........XXXXXXXXXXXXXXXXoooooooo",
"ooooooooXXXXXXXXXXXXXXXX........XXXXXXXXXXXXXXXX                                XXXXXXXXXXXXXXXX........XXXXXXXXXXXXXXXXoooooooo",
"ooooooooXXXXXXXXXXXXXXXX........XXXXXXXXXXXXXXXXOOOOOOOOXXXXXXXXXXXXXXXXOOOOOOOOXXXXXXXXXXXXXXXX........XXXXXXXXXXXXXXXXoooooooo",
"ooooooooXXXXXXXXXXXXXXXX........XXXXXXXXXXXXXXXXOOOOOOOOXXXXXXXXXXXXXXXXOOOOOOOOXXXXXXXXXXXXXXXX........XXXXXXXXXXXXXXXXoooooooo",
"ooooooooXXXXXXXXXXXXXXXX........XXXXXXXXXXXXXXXXOOOOOOOOXXXXXXXXXXXXXXXXOOOOOOOOXXXXXXXXXXXXXXXX........XXXXXXXXXXXXXXXXoooooooo",
"ooooooooXXXXXXXXXXXXXXXX........XXXXXXXXXXXXXXXXOOOOOOOOXXXXXXXXXXXXXXXXOOOOOOOOXXXXXXXXXXXXXXXX........XXXXXXXXXXXXXXXXoooooooo",
"ooooooooXXXXXXXXXXXXXXXX........XXXXXXXXXXXXXXXXOOOOOOOOXXXXXXXXXXXXXXXXOOOOOOOOXXXXXXXXXXXXXXXX........XXXXXXXXXXXXXXXXoooooooo",
"ooooooooXXXXXXXXXXXXXXXX........XXXXXXXXXXXXXXXXOOOOOOOOXXXXXXXXXXXXXXXXOOOOOOOOXXXXXXXXXXXXXXXX........XXXXXXXXXXXXXXXXoooooooo",
"ooooooooXXXXXXXXXXXXXXXX........XXXXXXXXXXXXXXXXOOOOOOOOXXXXXXXXXXXXXXXXOOOOOOOOXXXXXXXXXXXXXXXX........XXXXXXXXXXXXXXXXoooooooo",
"ooooooooXXXXXXXXXXXXXXXX........XXXXXXXXXXXXXXXXOOOOOOOOXXXXXXXXXXXXXXXXOOOOOOOOXXXXXXXXXXXXXXXX........XXXXXXXXXXXXXXXXoooooooo",
"ooooooooXXXXXXXX........................XXXXXXXXXXXXXXXXXXXXXXXXXXXXXXXXXXXXXXXXXXXXXXXX........................XXXXXXXXoooooooo",
"ooooooooXXXXXXXX........................XXXXXXXXXXXXXXXXXXXXXXXXXXXXXXXXXXXXXXXXXXXXXXXX........................XXXXXXXXoooooooo",
"ooooooooXXXXXXXX........................XXXXXXXXXXXXXXXXXXXXXXXXXXXXXXXXXXXXXXXXXXXXXXXX........................XXXXXXXXoooooooo",
"ooooooooXXXXXXXX........................XXXXXXXXXXXXXXXXXXXXXXXXXXXXXXXXXXXXXXXXXXXXXXXX........................XXXXXXXXoooooooo",
"ooooooooXXXXXXXX........................XXXXXXXXXXXXXXXXXXXXXXXXXXXXXXXXXXXXXXXXXXXXXXXX........................XXXXXXXXoooooooo",
"ooooooooXXXXXXXX........................XXXXXXXXXXXXXXXXXXXXXXXXXXXXXXXXXXXXXXXXXXXXXXXX........................XXXXXXXXoooooooo",
"ooooooooXXXXXXXX........................XXXXXXXXXXXXXXXXXXXXXXXXXXXXXXXXXXXXXXXXXXXXXXXX........................XXXXXXXXoooooooo",
"ooooooooXXXXXXXX........................XXXXXXXXXXXXXXXXXXXXXXXXXXXXXXXXXXXXXXXXXXXXXXXX........................XXXXXXXXoooooooo",
"ooooooooXXXXXXXXXXXXXXXXXXXXXXXXXXXXXXXX........XXXXXXXXXXXXXXXXXXXXXXXXXXXXXXXX................XXXXXXXXXXXXXXXXXXXXXXXXoooooooo",
"ooooooooXXXXXXXXXXXXXXXXXXXXXXXXXXXXXXXX........XXXXXXXXXXXXXXXXXXXXXXXXXXXXXXXX................XXXXXXXXXXXXXXXXXXXXXXXXoooooooo",
"ooooooooXXXXXXXXXXXXXXXXXXXXXXXXXXXXXXXX........XXXXXXXXXXXXXXXXXXXXXXXXXXXXXXXX................XXXXXXXXXXXXXXXXXXXXXXXXoooooooo",
"ooooooooXXXXXXXXXXXXXXXXXXXXXXXXXXXXXXXX........XXXXXXXXXXXXXXXXXXXXXXXXXXXXXXXX................XXXXXXXXXXXXXXXXXXXXXXXXoooooooo",
"ooooooooXXXXXXXXXXXXXXXXXXXXXXXXXXXXXXXX........XXXXXXXXXXXXXXXXXXXXXXXXXXXXXXXX................XXXXXXXXXXXXXXXXXXXXXXXXoooooooo",
"ooooooooXXXXXXXXXXXXXXXXXXXXXXXXXXXXXXXX........XXXXXXXXXXXXXXXXXXXXXXXXXXXXXXXX................XXXXXXXXXXXXXXXXXXXXXXXXoooooooo",
"ooooooooXXXXXXXXXXXXXXXXXXXXXXXXXXXXXXXX........XXXXXXXXXXXXXXXXXXXXXXXXXXXXXXXX................XXXXXXXXXXXXXXXXXXXXXXXXoooooooo",
"ooooooooXXXXXXXXXXXXXXXXXXXXXXXXXXXXXXXX........XXXXXXXXXXXXXXXXXXXXXXXXXXXXXXXX................XXXXXXXXXXXXXXXXXXXXXXXXoooooooo",
"ooooooooXXXXXXXXXXXXXXXX................................................................................XXXXXXXXXXXXXXXXoooooooo",
"ooooooooXXXXXXXXXXXXXXXX................................................................................XXXXXXXXXXXXXXXXoooooooo",
"ooooooooXXXXXXXXXXXXXXXX................................................................................XXXXXXXXXXXXXXXXoooooooo",
"ooooooooXXXXXXXXXXXXXXXX................................................................................XXXXXXXXXXXXXXXXoooooooo",
"ooooooooXXXXXXXXXXXXXXXX................................................................................XXXXXXXXXXXXXXXXoooooooo",
"ooooooooXXXXXXXXXXXXXXXX................................................................................XXXXXXXXXXXXXXXXoooooooo",
"ooooooooXXXXXXXXXXXXXXXX................................................................................XXXXXXXXXXXXXXXXoooooooo",
"ooooooooXXXXXXXXXXXXXXXX................................................................................XXXXXXXXXXXXXXXXoooooooo",
"ooooooooooooooooXXXXXXXXXXXXXXXXoooooooo................................................ooooooooXXXXXXXXXXXXXXXXoooooooooooooooo",
"ooooooooooooooooXXXXXXXXXXXXXXXXoooooooo................................................ooooooooXXXXXXXXXXXXXXXXoooooooooooooooo",
"ooooooooooooooooXXXXXXXXXXXXXXXXoooooooo................................................ooooooooXXXXXXXXXXXXXXXXoooooooooooooooo",
"ooooooooooooooooXXXXXXXXXXXXXXXXoooooooo................................................ooooooooXXXXXXXXXXXXXXXXoooooooooooooooo",
"ooooooooooooooooXXXXXXXXXXXXXXXXoooooooo................................................ooooooooXXXXXXXXXXXXXXXXoooooooooooooooo",
"ooooooooooooooooXXXXXXXXXXXXXXXXoooooooo................................................ooooooooXXXXXXXXXXXXXXXXoooooooooooooooo",
"ooooooooooooooooXXXXXXXXXXXXXXXXoooooooo................................................ooooooooXXXXXXXXXXXXXXXXoooooooooooooooo",
"ooooooooooooooooXXXXXXXXXXXXXXXXoooooooo................................................ooooooooXXXXXXXXXXXXXXXXoooooooooooooooo",
"oooooooooooooooooooooooooooooooooooooooo................................................oooooooooooooooooooooooooooooooooooooooo",
"oooooooooooooooooooooooooooooooooooooooo................................................oooooooooooooooooooooooooooooooooooooooo",
"oooooooooooooooooooooooooooooooooooooooo................................................oooooooooooooooooooooooooooooooooooooooo",
"oooooooooooooooooooooooooooooooooooooooo................................................oooooooooooooooooooooooooooooooooooooooo",
"oooooooooooooooooooooooooooooooooooooooo................................................oooooooooooooooooooooooooooooooooooooooo",
"oooooooooooooooooooooooooooooooooooooooo................................................oooooooooooooooooooooooooooooooooooooooo",
"oooooooooooooooooooooooooooooooooooooooo................................................oooooooooooooooooooooooooooooooooooooooo",
"oooooooooooooooooooooooooooooooooooooooo................................................oooooooooooooooooooooooooooooooooooooooo",
"oooooooooooooooooooooooooooooooooooooooooooooooo                                oooooooooooooooooooooooooooooooooooooooooooooooo",
"oooooooooooooooooooooooooooooooooooooooooooooooo                                oooooooooooooooooooooooooooooooooooooooooooooooo",
"oooooooooooooooooooooooooooooooooooooooooooooooo                                oooooooooooooooooooooooooooooooooooooooooooooooo",
"oooooooooooooooooooooooooooooooooooooooooooooooo                                oooooooooooooooooooooooooooooooooooooooooooooooo",
"oooooooooooooooooooooooooooooooooooooooooooooooo                                oooooooooooooooooooooooooooooooooooooooooooooooo",
"oooooooooooooooooooooooooooooooooooooooooooooooo                                oooooooooooooooooooooooooooooooooooooooooooooooo",
"oooooooooooooooooooooooooooooooooooooooooooooooo                                oooooooooooooooooooooooooooooooooooooooooooooooo",
"oooooooooooooooooooooooooooooooooooooooooooooooo                                oooooooooooooooooooooooooooooooooooooooooooooooo"
};
