/* XPM */
static char *d948ade04c424c2d877d4cf5c0477842kOAQ0to7wQpy9V4X[] = {
/* columns rows colors chars-per-pixel */
"128 128 8 1 ",
"  c black",
". c #141B1B",
"X c #662505",
"o c #A02222",
"O c #FF3636",
"+ c #84C669",
"@ c #FCE2CA",
"# c white",
/* pixels */
"++++++++++++++++++++++++++++++++++++++++++++++++                        ........................++++++++++++++++++++++++++++++++",
"++++++++++++++++++++++++++++++++++++++++++++++++                        ........................++++++++++++++++++++++++++++++++",
"++++++++++++++++++++++++++++++++++++++++++++++++                        ........................++++++++++++++++++++++++++++++++",
"++++++++++++++++++++++++++++++++++++++++++++++++                        ........................++++++++++++++++++++++++++++++++",
"++++++++++++++++++++++++++++++++++++++++++++++++                        ........................++++++++++++++++++++++++++++++++",
"++++++++++++++++++++++++++++++++++++++++++++++++                        ........................++++++++++++++++++++++++++++++++",
"++++++++++++++++++++++++++++++++++++++++++++++++                        ........................++++++++++++++++++++++++++++++++",
"++++++++++++++++++++++++++++++++++++++++++++++++                        ........................++++++++++++++++++++++++++++++++",
"++++++++OOOOOOOO++++++++++++++++++++++++OOOOOOOO................................OOOOOOOO................++++++++++++++++++++++++",
"++++++++OOOOOOOO++++++++++++++++++++++++OOOOOOOO................................OOOOOOOO................++++++++++++++++++++++++",
"++++++++OOOOOOOO++++++++++++++++++++++++OOOOOOOO................................OOOOOOOO................++++++++++++++++++++++++",
"++++++++OOOOOOOO++++++++++++++++++++++++OOOOOOOO................................OOOOOOOO................++++++++++++++++++++++++",
"++++++++OOOOOOOO++++++++++++++++++++++++OOOOOOOO................................OOOOOOOO................++++++++++++++++++++++++",
"++++++++OOOOOOOO++++++++++++++++++++++++OOOOOOOO................................OOOOOOOO................++++++++++++++++++++++++",
"++++++++OOOOOOOO++++++++++++++++++++++++OOOOOOOO................................OOOOOOOO................++++++++++++++++++++++++",
"++++++++OOOOOOOO++++++++++++++++++++++++OOOOOOOO................................OOOOOOOO................++++++++++++++++++++++++",
"++++++++@@@@@@@@OOOOOOOO@@@@@@@@OOOOOOOO@@@@@@@@OOOOOOOOOOOOOOOOOOOOOOOOOOOOOOOO@@@@@@@@OOOOOOOO........++++++++++++++++++++++++",
"++++++++@@@@@@@@OOOOOOOO@@@@@@@@OOOOOOOO@@@@@@@@OOOOOOOOOOOOOOOOOOOOOOOOOOOOOOOO@@@@@@@@OOOOOOOO........++++++++++++++++++++++++",
"++++++++@@@@@@@@OOOOOOOO@@@@@@@@OOOOOOOO@@@@@@@@OOOOOOOOOOOOOOOOOOOOOOOOOOOOOOOO@@@@@@@@OOOOOOOO........++++++++++++++++++++++++",
"++++++++@@@@@@@@OOOOOOOO@@@@@@@@OOOOOOOO@@@@@@@@OOOOOOOOOOOOOOOOOOOOOOOOOOOOOOOO@@@@@@@@OOOOOOOO........++++++++++++++++++++++++",
"++++++++@@@@@@@@OOOOOOOO@@@@@@@@OOOOOOOO@@@@@@@@OOOOOOOOOOOOOOOOOOOOOOOOOOOOOOOO@@@@@@@@OOOOOOOO........++++++++++++++++++++++++",
"++++++++@@@@@@@@OOOOOOOO@@@@@@@@OOOOOOOO@@@@@@@@OOOOOOOOOOOOOOOOOOOOOOOOOOOOOOOO@@@@@@@@OOOOOOOO........++++++++++++++++++++++++",
"++++++++@@@@@@@@OOOOOOOO@@@@@@@@OOOOOOOO@@@@@@@@OOOOOOOOOOOOOOOOOOOOOOOOOOOOOOOO@@@@@@@@OOOOOOOO........++++++++++++++++++++++++",
"++++++++@@@@@@@@OOOOOOOO@@@@@@@@OOOOOOOO@@@@@@@@OOOOOOOOOOOOOOOOOOOOOOOOOOOOOOOO@@@@@@@@OOOOOOOO........++++++++++++++++++++++++",
"++++++++++++++++++++++++OOOOOOOOOOOOOOOOOOOOOOOOOOOOOOOOOOOOOOOOOOOOOOOOOOOOOOOOooooooooOOOOOOOOOOOOOOOO++++++++++++++++++++++++",
"++++++++++++++++++++++++OOOOOOOOOOOOOOOOOOOOOOOOOOOOOOOOOOOOOOOOOOOOOOOOOOOOOOOOooooooooOOOOOOOOOOOOOOOO++++++++++++++++++++++++",
"++++++++++++++++++++++++OOOOOOOOOOOOOOOOOOOOOOOOOOOOOOOOOOOOOOOOOOOOOOOOOOOOOOOOooooooooOOOOOOOOOOOOOOOO++++++++++++++++++++++++",
"++++++++++++++++++++++++OOOOOOOOOOOOOOOOOOOOOOOOOOOOOOOOOOOOOOOOOOOOOOOOOOOOOOOOooooooooOOOOOOOOOOOOOOOO++++++++++++++++++++++++",
"++++++++++++++++++++++++OOOOOOOOOOOOOOOOOOOOOOOOOOOOOOOOOOOOOOOOOOOOOOOOOOOOOOOOooooooooOOOOOOOOOOOOOOOO++++++++++++++++++++++++",
"++++++++++++++++++++++++OOOOOOOOOOOOOOOOOOOOOOOOOOOOOOOOOOOOOOOOOOOOOOOOOOOOOOOOooooooooOOOOOOOOOOOOOOOO++++++++++++++++++++++++",
"++++++++++++++++++++++++OOOOOOOOOOOOOOOOOOOOOOOOOOOOOOOOOOOOOOOOOOOOOOOOOOOOOOOOooooooooOOOOOOOOOOOOOOOO++++++++++++++++++++++++",
"++++++++++++++++++++++++OOOOOOOOOOOOOOOOOOOOOOOOOOOOOOOOOOOOOOOOOOOOOOOOOOOOOOOOooooooooOOOOOOOOOOOOOOOO++++++++++++++++++++++++",
"++++++++++++++++OOOOOOOOOOOOOOOOOOOOOOOOOOOOOOOOOOOOOOOOOOOOOOOOOOOOOOOO################ooooooooOOOOOOOOOOOOOOOOoooooooo++++++++",
"++++++++++++++++OOOOOOOOOOOOOOOOOOOOOOOOOOOOOOOOOOOOOOOOOOOOOOOOOOOOOOOO################ooooooooOOOOOOOOOOOOOOOOoooooooo++++++++",
"++++++++++++++++OOOOOOOOOOOOOOOOOOOOOOOOOOOOOOOOOOOOOOOOOOOOOOOOOOOOOOOO################ooooooooOOOOOOOOOOOOOOOOoooooooo++++++++",
"++++++++++++++++OOOOOOOOOOOOOOOOOOOOOOOOOOOOOOOOOOOOOOOOOOOOOOOOOOOOOOOO################ooooooooOOOOOOOOOOOOOOOOoooooooo++++++++",
"++++++++++++++++OOOOOOOOOOOOOOOOOOOOOOOOOOOOOOOOOOOOOOOOOOOOOOOOOOOOOOOO################ooooooooOOOOOOOOOOOOOOOOoooooooo++++++++",
"++++++++++++++++OOOOOOOOOOOOOOOOOOOOOOOOOOOOOOOOOOOOOOOOOOOOOOOOOOOOOOOO################ooooooooOOOOOOOOOOOOOOOOoooooooo++++++++",
"++++++++++++++++OOOOOOOOOOOOOOOOOOOOOOOOOOOOOOOOOOOOOOOOOOOOOOOOOOOOOOOO################ooooooooOOOOOOOOOOOOOOOOoooooooo++++++++",
"++++++++++++++++OOOOOOOOOOOOOOOOOOOOOOOOOOOOOOOOOOOOOOOOOOOOOOOOOOOOOOOO################ooooooooOOOOOOOOOOOOOOOOoooooooo++++++++",
"++++++++OOOOOOOOOOOOOOOOOOOOOOOOOOOOOOOOOOOOOOOOOOOOOOOOOOOOOOOOOOOOOOOOOOOOOOOOOOOOOOOO########OOOOOOOOOOOOOOOOoooooooo++++++++",
"++++++++OOOOOOOOOOOOOOOOOOOOOOOOOOOOOOOOOOOOOOOOOOOOOOOOOOOOOOOOOOOOOOOOOOOOOOOOOOOOOOOO########OOOOOOOOOOOOOOOOoooooooo++++++++",
"++++++++OOOOOOOOOOOOOOOOOOOOOOOOOOOOOOOOOOOOOOOOOOOOOOOOOOOOOOOOOOOOOOOOOOOOOOOOOOOOOOOO########OOOOOOOOOOOOOOOOoooooooo++++++++",
"++++++++OOOOOOOOOOOOOOOOOOOOOOOOOOOOOOOOOOOOOOOOOOOOOOOOOOOOOOOOOOOOOOOOOOOOOOOOOOOOOOOO########OOOOOOOOOOOOOOOOoooooooo++++++++",
"++++++++OOOOOOOOOOOOOOOOOOOOOOOOOOOOOOOOOOOOOOOOOOOOOOOOOOOOOOOOOOOOOOOOOOOOOOOOOOOOOOOO########OOOOOOOOOOOOOOOOoooooooo++++++++",
"++++++++OOOOOOOOOOOOOOOOOOOOOOOOOOOOOOOOOOOOOOOOOOOOOOOOOOOOOOOOOOOOOOOOOOOOOOOOOOOOOOOO########OOOOOOOOOOOOOOOOoooooooo++++++++",
"++++++++OOOOOOOOOOOOOOOOOOOOOOOOOOOOOOOOOOOOOOOOOOOOOOOOOOOOOOOOOOOOOOOOOOOOOOOOOOOOOOOO########OOOOOOOOOOOOOOOOoooooooo++++++++",
"++++++++OOOOOOOOOOOOOOOOOOOOOOOOOOOOOOOOOOOOOOOOOOOOOOOOOOOOOOOOOOOOOOOOOOOOOOOOOOOOOOOO########OOOOOOOOOOOOOOOOoooooooo++++++++",
"++++++++OOOOOOOOOOOOOOOOOOOOOOOOOOOOOOOOOOOOOOOOOOOOOOOOOOOOOOOOOOOOOOOOOOOOOOOO        OOOOOOOOOOOOOOOOOOOOOOOOoooooooo++++++++",
"++++++++OOOOOOOOOOOOOOOOOOOOOOOOOOOOOOOOOOOOOOOOOOOOOOOOOOOOOOOOOOOOOOOOOOOOOOOO        OOOOOOOOOOOOOOOOOOOOOOOOoooooooo++++++++",
"++++++++OOOOOOOOOOOOOOOOOOOOOOOOOOOOOOOOOOOOOOOOOOOOOOOOOOOOOOOOOOOOOOOOOOOOOOOO        OOOOOOOOOOOOOOOOOOOOOOOOoooooooo++++++++",
"++++++++OOOOOOOOOOOOOOOOOOOOOOOOOOOOOOOOOOOOOOOOOOOOOOOOOOOOOOOOOOOOOOOOOOOOOOOO        OOOOOOOOOOOOOOOOOOOOOOOOoooooooo++++++++",
"++++++++OOOOOOOOOOOOOOOOOOOOOOOOOOOOOOOOOOOOOOOOOOOOOOOOOOOOOOOOOOOOOOOOOOOOOOOO        OOOOOOOOOOOOOOOOOOOOOOOOoooooooo++++++++",
"++++++++OOOOOOOOOOOOOOOOOOOOOOOOOOOOOOOOOOOOOOOOOOOOOOOOOOOOOOOOOOOOOOOOOOOOOOOO        OOOOOOOOOOOOOOOOOOOOOOOOoooooooo++++++++",
"++++++++OOOOOOOOOOOOOOOOOOOOOOOOOOOOOOOOOOOOOOOOOOOOOOOOOOOOOOOOOOOOOOOOOOOOOOOO        OOOOOOOOOOOOOOOOOOOOOOOOoooooooo++++++++",
"++++++++OOOOOOOOOOOOOOOOOOOOOOOOOOOOOOOOOOOOOOOOOOOOOOOOOOOOOOOOOOOOOOOOOOOOOOOO        OOOOOOOOOOOOOOOOOOOOOOOOoooooooo++++++++",
"++++++++OOOOOOOOXXXXXXXXXXXXXXXXXXXXXXXXXXXXXXXXOOOOOOOOOOOOOOOOOOOOOOOOOOOOOOOOOOOOOOOOoooooooooooooooooooooooooooooooo++++++++",
"++++++++OOOOOOOOXXXXXXXXXXXXXXXXXXXXXXXXXXXXXXXXOOOOOOOOOOOOOOOOOOOOOOOOOOOOOOOOOOOOOOOOoooooooooooooooooooooooooooooooo++++++++",
"++++++++OOOOOOOOXXXXXXXXXXXXXXXXXXXXXXXXXXXXXXXXOOOOOOOOOOOOOOOOOOOOOOOOOOOOOOOOOOOOOOOOoooooooooooooooooooooooooooooooo++++++++",
"++++++++OOOOOOOOXXXXXXXXXXXXXXXXXXXXXXXXXXXXXXXXOOOOOOOOOOOOOOOOOOOOOOOOOOOOOOOOOOOOOOOOoooooooooooooooooooooooooooooooo++++++++",
"++++++++OOOOOOOOXXXXXXXXXXXXXXXXXXXXXXXXXXXXXXXXOOOOOOOOOOOOOOOOOOOOOOOOOOOOOOOOOOOOOOOOoooooooooooooooooooooooooooooooo++++++++",
"++++++++OOOOOOOOXXXXXXXXXXXXXXXXXXXXXXXXXXXXXXXXOOOOOOOOOOOOOOOOOOOOOOOOOOOOOOOOOOOOOOOOoooooooooooooooooooooooooooooooo++++++++",
"++++++++OOOOOOOOXXXXXXXXXXXXXXXXXXXXXXXXXXXXXXXXOOOOOOOOOOOOOOOOOOOOOOOOOOOOOOOOOOOOOOOOoooooooooooooooooooooooooooooooo++++++++",
"++++++++OOOOOOOOXXXXXXXXXXXXXXXXXXXXXXXXXXXXXXXXOOOOOOOOOOOOOOOOOOOOOOOOOOOOOOOOOOOOOOOOoooooooooooooooooooooooooooooooo++++++++",
"++++++++++++++++XXXXXXXXXXXXXXXXOOOOOOOOOOOOOOOOXXXXXXXXOOOOOOOOOOOOOOOOOOOOOOOOOOOOOOOOOOOOOOOO@@@@@@@@OOOOOOOOoooooooo++++++++",
"++++++++++++++++XXXXXXXXXXXXXXXXOOOOOOOOOOOOOOOOXXXXXXXXOOOOOOOOOOOOOOOOOOOOOOOOOOOOOOOOOOOOOOOO@@@@@@@@OOOOOOOOoooooooo++++++++",
"++++++++++++++++XXXXXXXXXXXXXXXXOOOOOOOOOOOOOOOOXXXXXXXXOOOOOOOOOOOOOOOOOOOOOOOOOOOOOOOOOOOOOOOO@@@@@@@@OOOOOOOOoooooooo++++++++",
"++++++++++++++++XXXXXXXXXXXXXXXXOOOOOOOOOOOOOOOOXXXXXXXXOOOOOOOOOOOOOOOOOOOOOOOOOOOOOOOOOOOOOOOO@@@@@@@@OOOOOOOOoooooooo++++++++",
"++++++++++++++++XXXXXXXXXXXXXXXXOOOOOOOOOOOOOOOOXXXXXXXXOOOOOOOOOOOOOOOOOOOOOOOOOOOOOOOOOOOOOOOO@@@@@@@@OOOOOOOOoooooooo++++++++",
"++++++++++++++++XXXXXXXXXXXXXXXXOOOOOOOOOOOOOOOOXXXXXXXXOOOOOOOOOOOOOOOOOOOOOOOOOOOOOOOOOOOOOOOO@@@@@@@@OOOOOOOOoooooooo++++++++",
"++++++++++++++++XXXXXXXXXXXXXXXXOOOOOOOOOOOOOOOOXXXXXXXXOOOOOOOOOOOOOOOOOOOOOOOOOOOOOOOOOOOOOOOO@@@@@@@@OOOOOOOOoooooooo++++++++",
"++++++++++++++++XXXXXXXXXXXXXXXXOOOOOOOOOOOOOOOOXXXXXXXXOOOOOOOOOOOOOOOOOOOOOOOOOOOOOOOOOOOOOOOO@@@@@@@@OOOOOOOOoooooooo++++++++",
"++++++++++++++++XXXXXXXXXXXXXXXXOOOOOOOOOOOOOOOOXXXXXXXXOOOOOOOOOOOOOOOOOOOOOOOOOOOOOOOOOOOOOOOOOOOOOOOOOOOOOOOOoooooooo++++++++",
"++++++++++++++++XXXXXXXXXXXXXXXXOOOOOOOOOOOOOOOOXXXXXXXXOOOOOOOOOOOOOOOOOOOOOOOOOOOOOOOOOOOOOOOOOOOOOOOOOOOOOOOOoooooooo++++++++",
"++++++++++++++++XXXXXXXXXXXXXXXXOOOOOOOOOOOOOOOOXXXXXXXXOOOOOOOOOOOOOOOOOOOOOOOOOOOOOOOOOOOOOOOOOOOOOOOOOOOOOOOOoooooooo++++++++",
"++++++++++++++++XXXXXXXXXXXXXXXXOOOOOOOOOOOOOOOOXXXXXXXXOOOOOOOOOOOOOOOOOOOOOOOOOOOOOOOOOOOOOOOOOOOOOOOOOOOOOOOOoooooooo++++++++",
"++++++++++++++++XXXXXXXXXXXXXXXXOOOOOOOOOOOOOOOOXXXXXXXXOOOOOOOOOOOOOOOOOOOOOOOOOOOOOOOOOOOOOOOOOOOOOOOOOOOOOOOOoooooooo++++++++",
"++++++++++++++++XXXXXXXXXXXXXXXXOOOOOOOOOOOOOOOOXXXXXXXXOOOOOOOOOOOOOOOOOOOOOOOOOOOOOOOOOOOOOOOOOOOOOOOOOOOOOOOOoooooooo++++++++",
"++++++++++++++++XXXXXXXXXXXXXXXXOOOOOOOOOOOOOOOOXXXXXXXXOOOOOOOOOOOOOOOOOOOOOOOOOOOOOOOOOOOOOOOOOOOOOOOOOOOOOOOOoooooooo++++++++",
"++++++++++++++++XXXXXXXXXXXXXXXXOOOOOOOOOOOOOOOOXXXXXXXXOOOOOOOOOOOOOOOOOOOOOOOOOOOOOOOOOOOOOOOOOOOOOOOOOOOOOOOOoooooooo++++++++",
"++++++++++++++++XXXXXXXXXXXXXXXXOOOOOOOOXXXXXXXXXXXXXXXXXXXXXXXXOOOOOOOOOOOOOOOOOOOOOOOOOOOOOOOOOOOOOOOOOOOOOOOOoooooooo++++++++",
"++++++++++++++++XXXXXXXXXXXXXXXXOOOOOOOOXXXXXXXXXXXXXXXXXXXXXXXXOOOOOOOOOOOOOOOOOOOOOOOOOOOOOOOOOOOOOOOOOOOOOOOOoooooooo++++++++",
"++++++++++++++++XXXXXXXXXXXXXXXXOOOOOOOOXXXXXXXXXXXXXXXXXXXXXXXXOOOOOOOOOOOOOOOOOOOOOOOOOOOOOOOOOOOOOOOOOOOOOOOOoooooooo++++++++",
"++++++++++++++++XXXXXXXXXXXXXXXXOOOOOOOOXXXXXXXXXXXXXXXXXXXXXXXXOOOOOOOOOOOOOOOOOOOOOOOOOOOOOOOOOOOOOOOOOOOOOOOOoooooooo++++++++",
"++++++++++++++++XXXXXXXXXXXXXXXXOOOOOOOOXXXXXXXXXXXXXXXXXXXXXXXXOOOOOOOOOOOOOOOOOOOOOOOOOOOOOOOOOOOOOOOOOOOOOOOOoooooooo++++++++",
"++++++++++++++++XXXXXXXXXXXXXXXXOOOOOOOOXXXXXXXXXXXXXXXXXXXXXXXXOOOOOOOOOOOOOOOOOOOOOOOOOOOOOOOOOOOOOOOOOOOOOOOOoooooooo++++++++",
"++++++++++++++++XXXXXXXXXXXXXXXXOOOOOOOOXXXXXXXXXXXXXXXXXXXXXXXXOOOOOOOOOOOOOOOOOOOOOOOOOOOOOOOOOOOOOOOOOOOOOOOOoooooooo++++++++",
"++++++++++++++++XXXXXXXXXXXXXXXXOOOOOOOOXXXXXXXXXXXXXXXXXXXXXXXXOOOOOOOOOOOOOOOOOOOOOOOOOOOOOOOOOOOOOOOOOOOOOOOOoooooooo++++++++",
"++++++++++++++++XXXXXXXXXXXXXXXXOOOOOOOOOOOOOOOOOOOOOOOXXXXXXXXXXXXXXXXXOOOOOOOOOOOOOOOOOOOOOOOOOOOOOOOOOOOOOOOOoooooooo++++++++",
"++++++++++++++++XXXXXXXXXXXXXXXXOOOOOOOOOOOOOOOOOOOOOOOXXXXXXXXXXXXXXXXXOOOOOOOOOOOOOOOOOOOOOOOOOOOOOOOOOOOOOOOOoooooooo++++++++",
"++++++++++++++++XXXXXXXXXXXXXXXXOOOOOOOOOOOOOOOOOOOOOOOXXXXXXXXXXXXXXXXXOOOOOOOOOOOOOOOOOOOOOOOOOOOOOOOOOOOOOOOOoooooooo++++++++",
"++++++++++++++++XXXXXXXXXXXXXXXXOOOOOOOOOOOOOOOOOOOOOOOXXXXXXXXXXXXXXXXXOOOOOOOOOOOOOOOOOOOOOOOOOOOOOOOOOOOOOOOOoooooooo++++++++",
"++++++++++++++++XXXXXXXXXXXXXXXXOOOOOOOOOOOOOOOOOOOOOOOXXXXXXXXXXXXXXXXXOOOOOOOOOOOOOOOOOOOOOOOOOOOOOOOOOOOOOOOOoooooooo++++++++",
"++++++++++++++++XXXXXXXXXXXXXXXXOOOOOOOOOOOOOOOOOOOOOOOXXXXXXXXXXXXXXXXXOOOOOOOOOOOOOOOOOOOOOOOOOOOOOOOOOOOOOOOOoooooooo++++++++",
"++++++++++++++++XXXXXXXXXXXXXXXXOOOOOOOOOOOOOOOOOOOOOOOXXXXXXXXXXXXXXXXXOOOOOOOOOOOOOOOOOOOOOOOOOOOOOOOOOOOOOOOOoooooooo++++++++",
"++++++++++++++++XXXXXXXXXXXXXXXXOOOOOOOOOOOOOOOOOOOOOOOXXXXXXXXXXXXXXXOOOOOOOOOOOOOOOOOOOOOOOOOOOOOOOOOOOOOOOOOOoooooooo++++++++",
"++++++++++++++++++++++++........OOOOOOOOOOOOOOOOOOOOOOOXXXXXXXXXXXXXXXOOOOOOOOOOOOOOOOOOOOOOOOOOOOOOOOOOOOOOOOOO++++++++++++++++",
"++++++++++++++++++++++++........OOOOOOOOOOOOOOOOOOOOOOOXXXXXXXXXXXXXXXOOOOOOOOOOOOOOOOOOOOOOOOOOOOOOOOOOOOOOOOOO++++++++++++++++",
"++++++++++++++++++++++++........OOOOOOOOOOOOOOOOOOOOOOOXXXXXXXXXXXXXXXOOOOOOOOOOOOOOOOOOOOOOOOOOOOOOOOOOOOOOOOOO++++++++++++++++",
"++++++++++++++++++++++++........OOOOOOOOOOOOOOOOOOOOOOOXXXXXXXXXXXXXXXOOOOOOOOOOOOOOOOOOOOOOOOOOOOOOOOOOOOOOOOOO++++++++++++++++",
"++++++++++++++++++++++++........OOOOOOOOOOOOOOOOOOOOOOOXXXXXXXXXXXXXXXOOOOOOOOOOOOOOOOOOOOOOOOOOOOOOOOOOOOOOOOOO++++++++++++++++",
"++++++++++++++++++++++++........OOOOOOOOOOOOOOOOOOOOOOOXXXXXXXXXXXXXXXOOOOOOOOOOOOOOOOOOOOOOOOOOOOOOOOOOOOOOOOOO++++++++++++++++",
"++++++++++++++++++++++++........OOOOOOOOOOOOOOOOOOOOOOOXXXXXXXXXXXXXXXOOOOOOOOOOOOOOOOOOOOOOOOOOOOOOOOOOOOOOOOOO++++++++++++++++",
"++++++++++++++++++++++++........OOOOOOOOOOOOOOOOOOOOOOOXXXXXXXXXXXXXXXOOOOOOOOOOOOOOOOOOOOOOOOOOOOOOOOOOOOOOOOOO++++++++++++++++",
"++++++++++++++++++++++++................OOOOOOOOOOOOOOOO........XXXXXXOOOOOOOOOOOOOOOOOOOOOOOOOOOOOOOOOOOOOOOOOO++++++++++++++++",
"++++++++++++++++++++++++................OOOOOOOOOOOOOOOO........XXXXXXOOOOOOOOOOOOOOOOOOOOOOOOOOOOOOOOOOOOOOOOOO++++++++++++++++",
"++++++++++++++++++++++++................OOOOOOOOOOOOOOOO........XXXXXXOOOOOOOOOOOOOOOOOOOOOOOOOOOOOOOOOOOOOOOOOO++++++++++++++++",
"++++++++++++++++++++++++................OOOOOOOOOOOOOOOO........XXXXXXOOOOOOOOOOOOOOOOOOOOOOOOOOOOOOOOOOOOOOOOOO++++++++++++++++",
"++++++++++++++++++++++++................OOOOOOOOOOOOOOOO........XXXXXXOOOOOOOOOOOOOOOOOOOOOOOOOOOOOOOOOOOOOOOOOO++++++++++++++++",
"++++++++++++++++++++++++................OOOOOOOOOOOOOOOO........XXXXXXOOOOOOOOOOOOOOOOOOOOOOOOOOOOOOOOOOOOOOOOOO++++++++++++++++",
"++++++++++++++++++++++++................OOOOOOOOOOOOOOOO........XXXXXXOOOOOOOOOOOOOOOOOOOOOOOOOOOOOOOOOOOOOOOOOO++++++++++++++++",
"++++++++++++++++++++++++................OOOOOOOOOOOOOOOO........++++++++OOOOOOOOOOOOOOOOOOOOOOOOOOOOOOOOOOOOOOOO++++++++++++++++",
"++++++++++++++++++++++++........................................++++++++++++++++++++++++++++++++++++++++++++++++++++++++++++++++",
"++++++++++++++++++++++++........................................++++++++++++++++++++++++++++++++++++++++++++++++++++++++++++++++",
"++++++++++++++++++++++++........................................++++++++++++++++++++++++++++++++++++++++++++++++++++++++++++++++",
"++++++++++++++++++++++++........................................++++++++++++++++++++++++++++++++++++++++++++++++++++++++++++++++",
"++++++++++++++++++++++++........................................++++++++++++++++++++++++++++++++++++++++++++++++++++++++++++++++",
"++++++++++++++++++++++++........................................++++++++++++++++++++++++++++++++++++++++++++++++++++++++++++++++",
"++++++++++++++++++++++++........................................++++++++++++++++++++++++++++++++++++++++++++++++++++++++++++++++",
"++++++++++++++++++++++++........................................++++++++++++++++++++++++++++++++++++++++++++++++++++++++++++++++",
"++++++++++++++++++++++++                ........                                        ++++++++++++++++++++++++++++++++++++++++",
"++++++++++++++++++++++++                ........                                        ++++++++++++++++++++++++++++++++++++++++",
"++++++++++++++++++++++++                ........                                        ++++++++++++++++++++++++++++++++++++++++",
"++++++++++++++++++++++++                ........                                        ++++++++++++++++++++++++++++++++++++++++",
"++++++++++++++++++++++++                ........                                        ++++++++++++++++++++++++++++++++++++++++",
"++++++++++++++++++++++++                ........                                        ++++++++++++++++++++++++++++++++++++++++",
"++++++++++++++++++++++++                ........                                        ++++++++++++++++++++++++++++++++++++++++",
"++++++++++++++++++++++++                ........                                        ++++++++++++++++++++++++++++++++++++++++"
};
